<svg width="126" height="35" viewBox="0 0 126 35" fill="none" xmlns="http://www.w3.org/2000/svg">
<g id="Group">
<g id="Group_2">
<g id="Group_3">
<path id="Vector" d="M20.5354 16.1756C20.5022 12.4905 23.5527 10.6977 23.6922 10.6143C21.9646 8.09543 19.2868 7.75128 18.3458 7.72384C16.0968 7.48716 13.9153 9.06958 12.7696 9.06958C11.6011 9.06958 9.83691 7.7467 7.93549 7.78558C5.48868 7.82331 3.19966 9.23994 1.94424 11.4398C-0.646631 15.9252 1.28566 22.5167 3.76791 26.1423C5.00961 27.918 6.46054 29.9006 8.35968 29.8309C10.2176 29.7542 10.9117 28.6463 13.1538 28.6463C15.3754 28.6463 16.0271 29.8309 17.964 29.7863C19.958 29.7542 21.2134 28.0026 22.4117 26.2109C23.8466 24.1758 24.4228 22.1714 24.4457 22.0685C24.3988 22.0525 20.5731 20.5924 20.5354 16.1756Z" fill="white"/>
<path id="Vector_2" d="M16.8766 5.3388C17.8759 4.0891 18.5596 2.38892 18.3698 0.663574C16.9234 0.727603 15.1146 1.66402 14.073 2.88628C13.1515 3.96333 12.3283 5.72869 12.5409 7.38886C14.1656 7.51006 15.8338 6.56907 16.8766 5.3388Z" fill="white"/>
</g>
</g>
<g id="Group_4">
<path id="Vector_3" d="M47.4237 29.5758H44.8271L43.4048 25.1064H38.4609L37.106 29.5758H34.578L39.4762 14.3599H42.5015L47.4237 29.5758ZM42.976 23.2313L41.6897 19.2581C41.5537 18.8522 41.2987 17.8963 40.9225 16.3916H40.8768C40.727 17.0388 40.4858 17.9946 40.1542 19.2581L38.8908 23.2313H42.976Z" fill="white"/>
<path id="Vector_4" d="M60.02 23.955C60.02 25.821 59.5157 27.2959 58.5073 28.3787C57.604 29.3425 56.4824 29.8239 55.1435 29.8239C53.6983 29.8239 52.6601 29.3048 52.0278 28.2666H51.9821V34.0464H49.5444V22.2159C49.5444 21.0428 49.5136 19.8389 49.4541 18.604H51.5979L51.734 20.3431H51.7797C52.5926 19.0328 53.8263 18.3788 55.4819 18.3788C56.7762 18.3788 57.8567 18.8899 58.7211 19.9132C59.5878 20.9376 60.02 22.2845 60.02 23.955ZM57.5366 24.0442C57.5366 22.9763 57.2965 22.0959 56.814 21.403C56.2869 20.6804 55.5791 20.3191 54.6919 20.3191C54.0905 20.3191 53.5439 20.5203 53.0557 20.9171C52.5663 21.3172 52.2462 21.8398 52.0964 22.4869C52.021 22.7888 51.9832 23.0357 51.9832 23.2301V25.0595C51.9832 25.8576 52.2279 26.531 52.7173 27.081C53.2066 27.6309 53.8423 27.9053 54.6244 27.9053C55.5425 27.9053 56.2571 27.5509 56.7682 26.8443C57.2804 26.1365 57.5366 25.2035 57.5366 24.0442Z" fill="white"/>
<path id="Vector_5" d="M72.6395 23.955C72.6395 25.821 72.1353 27.2959 71.1257 28.3787C70.2236 29.3425 69.102 29.8239 67.7631 29.8239C66.3179 29.8239 65.2797 29.3048 64.6485 28.2666H64.6028V34.0464H62.1652V22.2159C62.1652 21.0428 62.1343 19.8389 62.0748 18.604H64.2186L64.3547 20.3431H64.4004C65.2122 19.0328 66.4459 18.3788 68.1027 18.3788C69.3958 18.3788 70.4763 18.8899 71.343 19.9132C72.2062 20.9376 72.6395 22.2845 72.6395 23.955ZM70.1562 24.0442C70.1562 22.9763 69.9149 22.0959 69.4324 21.403C68.9053 20.6804 68.1999 20.3191 67.3115 20.3191C66.7089 20.3191 66.1635 20.5203 65.6742 20.9171C65.1848 21.3172 64.8658 21.8398 64.716 22.4869C64.6417 22.7888 64.6028 23.0357 64.6028 23.2301V25.0595C64.6028 25.8576 64.8475 26.531 65.3346 27.081C65.8239 27.6298 66.4596 27.9053 67.244 27.9053C68.1621 27.9053 68.8767 27.5509 69.3878 26.8443C69.9 26.1365 70.1562 25.2035 70.1562 24.0442Z" fill="white"/>
<path id="Vector_6" d="M86.7487 25.3088C86.7487 26.6031 86.2994 27.6561 85.3973 28.4691C84.406 29.3575 83.0259 29.8011 81.2526 29.8011C79.6153 29.8011 78.3027 29.4855 77.3091 28.8532L77.8739 26.8215C78.9441 27.4686 80.1183 27.7933 81.3978 27.7933C82.3159 27.7933 83.0305 27.5852 83.5439 27.1713C84.055 26.7575 84.3099 26.2018 84.3099 25.5089C84.3099 24.8915 84.0995 24.3712 83.6776 23.9493C83.258 23.5274 82.5571 23.1353 81.5784 22.7728C78.9144 21.7792 77.5835 20.3237 77.5835 18.4097C77.5835 17.1589 78.05 16.1333 78.9841 15.3352C79.9148 14.536 81.1565 14.137 82.7092 14.137C84.0938 14.137 85.2441 14.3782 86.1622 14.8596L85.5528 16.8467C84.6952 16.3803 83.7257 16.147 82.6406 16.147C81.7831 16.147 81.1131 16.3585 80.6329 16.7793C80.227 17.1555 80.0234 17.6139 80.0234 18.157C80.0234 18.7585 80.2555 19.2558 80.722 19.6469C81.1279 20.0082 81.8654 20.3992 82.9356 20.8211C84.2448 21.3482 85.2063 21.9645 85.8249 22.6711C86.4412 23.3754 86.7487 24.2569 86.7487 25.3088Z" fill="white"/>
<path id="Vector_7" d="M94.8082 20.4335H92.1213V25.7605C92.1213 27.1154 92.5946 27.7923 93.5436 27.7923C93.9792 27.7923 94.3405 27.7545 94.6264 27.6791L94.6938 29.5302C94.2136 29.7097 93.5813 29.8 92.7981 29.8C91.8354 29.8 91.0831 29.5062 90.54 28.9196C89.9992 28.3319 89.727 27.3463 89.727 25.9617V20.4313H88.1263V18.6019H89.727V16.593L92.1213 15.8704V18.6019H94.8082V20.4335Z" fill="white"/>
<path id="Vector_8" d="M106.931 23.9998C106.931 25.6862 106.449 27.0709 105.486 28.1536C104.477 29.2684 103.137 29.8241 101.466 29.8241C99.8563 29.8241 98.5746 29.2901 97.6187 28.2222C96.6629 27.1543 96.1849 25.8063 96.1849 24.1816C96.1849 22.4814 96.6766 21.0888 97.6633 20.006C98.6477 18.9221 99.9763 18.3801 101.647 18.3801C103.257 18.3801 104.552 18.9141 105.53 19.9831C106.465 21.0202 106.931 22.359 106.931 23.9998ZM104.402 24.0787C104.402 23.0668 104.186 22.199 103.748 21.4752C103.237 20.5994 102.507 20.1626 101.56 20.1626C100.58 20.1626 99.8357 20.6005 99.3246 21.4752C98.8867 22.2001 98.6706 23.0817 98.6706 24.1244C98.6706 25.1363 98.8867 26.0041 99.3246 26.7267C99.8517 27.6025 100.588 28.0393 101.538 28.0393C102.469 28.0393 103.199 27.5934 103.727 26.7038C104.176 25.9664 104.402 25.0894 104.402 24.0787Z" fill="white"/>
<path id="Vector_9" d="M114.855 20.7478C114.614 20.7033 114.356 20.6804 114.086 20.6804C113.229 20.6804 112.566 21.004 112.099 21.6522C111.693 22.2239 111.49 22.9465 111.49 23.8189V29.5758H109.053L109.076 22.0593C109.076 20.7947 109.045 19.6433 108.985 18.6052H111.108L111.197 20.7044H111.265C111.522 19.9829 111.928 19.4021 112.483 18.9665C113.027 18.5743 113.613 18.3788 114.245 18.3788C114.471 18.3788 114.674 18.3948 114.855 18.4234V20.7478Z" fill="white"/>
<path id="Vector_10" d="M125.757 23.5709C125.757 24.0077 125.728 24.3758 125.668 24.6765H118.355C118.383 25.7604 118.736 26.5894 119.416 27.1611C120.032 27.6721 120.829 27.9283 121.808 27.9283C122.89 27.9283 123.878 27.7556 124.767 27.4092L125.148 29.1014C124.11 29.5541 122.885 29.7794 121.47 29.7794C119.769 29.7794 118.433 29.2786 117.462 28.2781C116.492 27.2777 116.006 25.9342 116.006 24.2489C116.006 22.5945 116.458 21.2167 117.362 20.1179C118.309 18.9448 119.588 18.3583 121.198 18.3583C122.779 18.3583 123.977 18.9448 124.789 20.1179C125.433 21.0498 125.757 22.2023 125.757 23.5709ZM123.432 22.9386C123.448 22.216 123.289 21.5917 122.959 21.0646C122.537 20.3866 121.889 20.0482 121.016 20.0482C120.219 20.0482 119.571 20.3786 119.076 21.0418C118.67 21.5689 118.429 22.2011 118.355 22.9375H123.432V22.9386Z" fill="white"/>
</g>
<g id="Group_5">
<path id="Vector_11" d="M42.1703 4.99928C42.1703 6.34503 41.7667 7.35805 40.9607 8.03835C40.214 8.66606 39.153 8.98049 37.7787 8.98049C37.0972 8.98049 36.5141 8.95076 36.0259 8.89131V1.53831C36.6627 1.43541 37.3488 1.38281 38.0897 1.38281C39.3988 1.38281 40.3855 1.66751 41.051 2.23691C41.7965 2.88062 42.1703 3.80103 42.1703 4.99928ZM40.9069 5.03244C40.9069 4.16005 40.676 3.49118 40.214 3.02469C39.7521 2.55934 39.0775 2.32609 38.1891 2.32609C37.8118 2.32609 37.4905 2.35124 37.2241 2.40384V7.99376C37.3716 8.01663 37.6415 8.02692 38.0336 8.02692C38.9506 8.02692 39.6584 7.77195 40.1569 7.26201C40.6554 6.75207 40.9069 6.00888 40.9069 5.03244Z" fill="white"/>
<path id="Vector_12" d="M48.8693 6.17464C48.8693 7.00358 48.6326 7.68274 48.1592 8.21555C47.663 8.76322 47.0056 9.03649 46.1846 9.03649C45.3934 9.03649 44.7634 8.77466 44.2935 8.24871C43.8247 7.7239 43.5903 7.06189 43.5903 6.26382C43.5903 5.42916 43.8316 4.74429 44.3164 4.21262C44.8012 3.68096 45.4529 3.41455 46.2738 3.41455C47.065 3.41455 47.7007 3.67638 48.1821 4.20119C48.6394 4.71113 48.8693 5.36971 48.8693 6.17464ZM47.6264 6.21351C47.6264 5.71615 47.5189 5.28967 47.3051 4.93409C47.0536 4.50418 46.6957 4.28923 46.2304 4.28923C45.749 4.28923 45.3831 4.50418 45.1316 4.93409C44.9166 5.28967 44.8103 5.72301 44.8103 6.23524C44.8103 6.7326 44.9178 7.15908 45.1316 7.51467C45.3911 7.94457 45.7524 8.15953 46.2189 8.15953C46.6763 8.15953 47.0353 7.94114 47.2937 7.50323C47.5155 7.14079 47.6264 6.71088 47.6264 6.21351Z" fill="white"/>
<path id="Vector_13" d="M57.8517 3.52417L56.1652 8.91401H55.0676L54.369 6.57353C54.1918 5.98927 54.0477 5.40844 53.9356 4.83218H53.9139C53.8099 5.42445 53.6658 6.00413 53.4806 6.57353L52.7385 8.91401H51.6283L50.0425 3.52417H51.2739L51.8833 6.08646C52.0308 6.69244 52.152 7.26984 52.2492 7.81637H52.2709C52.3601 7.36589 52.5076 6.79192 52.7157 6.09789L53.4806 3.52531H54.457L55.1899 6.04301C55.3671 6.657 55.5112 7.24812 55.6221 7.81752H55.6553C55.7365 7.26298 55.8588 6.67186 56.0211 6.04301L56.6752 3.52531H57.8517V3.52417Z" fill="white"/>
<path id="Vector_14" d="M64.0635 8.91404H62.8653V5.82695C62.8653 4.87566 62.5039 4.40002 61.7791 4.40002C61.4235 4.40002 61.1365 4.53037 60.9135 4.7922C60.6929 5.05403 60.5808 5.36274 60.5808 5.71604V8.9129H59.3826V5.06432C59.3826 4.59097 59.3677 4.07759 59.3391 3.52192H60.3921L60.4482 4.36458H60.4813C60.6208 4.10275 60.8289 3.88665 61.1022 3.714C61.4269 3.51277 61.7905 3.41101 62.1884 3.41101C62.6915 3.41101 63.1099 3.57337 63.4427 3.89923C63.8566 4.29826 64.0635 4.89396 64.0635 5.68517V8.91404Z" fill="white"/>
<path id="Vector_15" d="M67.3676 8.91409H66.1705V1.05115H67.3676V8.91409Z" fill="white"/>
<path id="Vector_16" d="M74.4225 6.17464C74.4225 7.00358 74.1858 7.68274 73.7125 8.21555C73.2162 8.76322 72.5577 9.03649 71.7379 9.03649C70.9455 9.03649 70.3155 8.77466 69.8467 8.24871C69.3779 7.7239 69.1436 7.06189 69.1436 6.26382C69.1436 5.42916 69.3848 4.74429 69.8696 4.21262C70.3544 3.68096 71.0061 3.41455 71.8259 3.41455C72.6182 3.41455 73.2528 3.67638 73.7353 4.20119C74.1927 4.71113 74.4225 5.36971 74.4225 6.17464ZM73.1785 6.21351C73.1785 5.71615 73.071 5.28967 72.8572 4.93409C72.6068 4.50418 72.2478 4.28923 71.7836 4.28923C71.3011 4.28923 70.9352 4.50418 70.6848 4.93409C70.4699 5.28967 70.3635 5.72301 70.3635 6.23524C70.3635 6.7326 70.471 7.15908 70.6848 7.51467C70.9444 7.94457 71.3057 8.15953 71.7722 8.15953C72.2295 8.15953 72.5874 7.94114 72.8458 7.50323C73.0687 7.14079 73.1785 6.71088 73.1785 6.21351Z" fill="white"/>
<path id="Vector_17" d="M80.2215 8.91415H79.1456L79.0564 8.2933H79.0232C78.655 8.78838 78.1302 9.03649 77.4488 9.03649C76.94 9.03649 76.5284 8.87299 76.2185 8.54827C75.9373 8.25328 75.7966 7.88626 75.7966 7.45064C75.7966 6.79206 76.071 6.29012 76.6233 5.94254C77.1744 5.59495 77.9496 5.42459 78.9478 5.43259V5.33198C78.9478 4.62195 78.575 4.2675 77.8284 4.2675C77.2967 4.2675 76.828 4.40128 76.4232 4.66654L76.1797 3.8799C76.6805 3.57005 77.299 3.41455 78.0285 3.41455C79.4371 3.41455 80.1437 4.15774 80.1437 5.64412V7.629C80.1437 8.16753 80.17 8.59629 80.2215 8.91415ZM78.9775 7.06189V6.23067C77.6557 6.2078 76.9949 6.57025 76.9949 7.31686C76.9949 7.59813 77.0703 7.80851 77.2247 7.94915C77.3791 8.08978 77.5757 8.15953 77.8101 8.15953C78.0731 8.15953 78.3189 8.07606 78.543 7.91027C78.7682 7.74334 78.9066 7.53182 78.958 7.27227C78.9706 7.21396 78.9775 7.14307 78.9775 7.06189Z" fill="white"/>
<path id="Vector_18" d="M87.03 8.91409H85.9667L85.9107 8.04856H85.8775C85.5379 8.70714 84.9594 9.03643 84.1465 9.03643C83.497 9.03643 82.9562 8.78146 82.5275 8.27151C82.0987 7.76157 81.8849 7.09956 81.8849 6.28663C81.8849 5.41424 82.117 4.70764 82.5835 4.16797C83.0351 3.66489 83.5885 3.41334 84.2471 3.41334C84.9708 3.41334 85.4773 3.65688 85.7655 4.1451H85.7883V1.05115H86.9877V7.46201C86.9877 7.98682 87.0015 8.47046 87.03 8.91409ZM85.7883 6.64107V5.74238C85.7883 5.58689 85.7769 5.46112 85.7552 5.36507C85.6877 5.07695 85.5425 4.83455 85.3218 4.63904C85.0989 4.44352 84.8302 4.34519 84.5203 4.34519C84.0733 4.34519 83.7234 4.52241 83.4662 4.878C83.2112 5.23359 83.082 5.6875 83.082 6.24204C83.082 6.77485 83.2043 7.20704 83.4502 7.53976C83.7097 7.8942 84.0596 8.07142 84.4975 8.07142C84.8908 8.07142 85.2052 7.92393 85.4442 7.6278C85.6752 7.35453 85.7883 7.02524 85.7883 6.64107Z" fill="white"/>
<path id="Vector_19" d="M97.2783 6.17464C97.2783 7.00358 97.0416 7.68274 96.5683 8.21555C96.0721 8.76322 95.4158 9.03649 94.5937 9.03649C93.8036 9.03649 93.1736 8.77466 92.7026 8.24871C92.2338 7.7239 91.9994 7.06189 91.9994 6.26382C91.9994 5.42916 92.2406 4.74429 92.7254 4.21262C93.2102 3.68096 93.8619 3.41455 94.684 3.41455C95.4741 3.41455 96.111 3.67638 96.5912 4.20119C97.0485 4.71113 97.2783 5.36971 97.2783 6.17464ZM96.0366 6.21351C96.0366 5.71615 95.9291 5.28967 95.7153 4.93409C95.4627 4.50418 95.1059 4.28923 94.6394 4.28923C94.1592 4.28923 93.7933 4.50418 93.5407 4.93409C93.3257 5.28967 93.2194 5.72301 93.2194 6.23524C93.2194 6.7326 93.3268 7.15908 93.5407 7.51467C93.8002 7.94457 94.1615 8.15953 94.628 8.15953C95.0853 8.15953 95.4455 7.94114 95.7039 7.50323C95.9246 7.14079 96.0366 6.71088 96.0366 6.21351Z" fill="white"/>
<path id="Vector_20" d="M103.721 8.91404H102.524V5.82695C102.524 4.87566 102.163 4.40002 101.436 4.40002C101.081 4.40002 100.794 4.53037 100.572 4.7922C100.35 5.05403 100.239 5.36274 100.239 5.71604V8.9129H99.04V5.06432C99.04 4.59097 99.0263 4.07759 98.9977 3.52192H100.05L100.106 4.36458H100.139C100.279 4.10275 100.487 3.88665 100.76 3.714C101.085 3.51277 101.448 3.41101 101.847 3.41101C102.349 3.41101 102.767 3.57337 103.1 3.89923C103.515 4.29826 103.721 4.89396 103.721 5.68517V8.91404Z" fill="white"/>
<path id="Vector_21" d="M111.785 4.42174H110.466V7.04005C110.466 7.70549 110.7 8.03821 111.164 8.03821C111.379 8.03821 111.558 8.01992 111.698 7.98219L111.729 8.89117C111.492 8.98035 111.181 9.02494 110.798 9.02494C110.325 9.02494 109.957 8.88088 109.69 8.59275C109.423 8.30462 109.29 7.81983 109.29 7.13953V4.42174H108.502V3.5242H109.29V2.53633L110.464 2.18188V3.52306H111.784V4.42174H111.785Z" fill="white"/>
<path id="Vector_22" d="M118.129 8.91409H116.929V5.84986C116.929 4.88372 116.568 4.40007 115.844 4.40007C115.289 4.40007 114.909 4.6802 114.701 5.24045C114.666 5.35821 114.645 5.50228 114.645 5.6715V8.91294H113.448V1.05115H114.645V4.29945H114.668C115.045 3.70833 115.586 3.41334 116.287 3.41334C116.783 3.41334 117.194 3.5757 117.519 3.90156C117.925 4.30746 118.129 4.91116 118.129 5.70923V8.91409Z" fill="white"/>
<path id="Vector_23" d="M124.672 5.96417C124.672 6.17913 124.656 6.35978 124.628 6.50727H121.034C121.05 7.04008 121.222 7.44598 121.554 7.72725C121.859 7.97879 122.251 8.10456 122.731 8.10456C123.263 8.10456 123.747 8.01995 124.184 7.84959L124.372 8.68196C123.861 8.90377 123.259 9.01468 122.563 9.01468C121.728 9.01468 121.071 8.76886 120.595 8.27721C120.117 7.78556 119.88 7.12584 119.88 6.29804C119.88 5.4851 120.101 4.80823 120.546 4.26856C121.01 3.6923 121.638 3.40417 122.43 3.40417C123.205 3.40417 123.794 3.6923 124.192 4.26856C124.513 4.72591 124.672 5.29187 124.672 5.96417ZM123.529 5.65432C123.538 5.29873 123.459 4.99231 123.297 4.73391C123.089 4.40119 122.772 4.23426 122.343 4.23426C121.952 4.23426 121.633 4.39662 121.39 4.72248C121.191 4.98202 121.073 5.29187 121.034 5.65432H123.529Z" fill="white"/>
</g>
</g>
</svg>
