<svg width="140" height="33" viewBox="0 0 140 33" fill="none" xmlns="http://www.w3.org/2000/svg">
<g id="Group">
<path id="Vector" d="M70.7681 18.1C69.7604 18.1048 68.7768 18.4079 67.9412 18.9712C67.1057 19.5345 66.4558 20.3326 66.0734 21.2649C65.6911 22.1972 65.5935 23.2219 65.793 24.2096C65.9925 25.1974 66.4801 26.1038 67.1943 26.8147C67.9085 27.5255 68.8173 28.0089 69.8059 28.2037C70.7945 28.3986 71.8188 28.2962 72.7493 27.9095C73.6798 27.5228 74.4749 26.8691 75.0342 26.0309C75.5935 25.1928 75.8921 24.2077 75.8921 23.2C75.9019 22.5256 75.7758 21.856 75.5215 21.2313C75.2671 20.6065 74.8897 20.0393 74.4116 19.5635C73.9335 19.0876 73.3645 18.7128 72.7386 18.4614C72.1126 18.21 71.4425 18.0871 70.7681 18.1ZM70.7681 26.296C70.1484 26.3394 69.53 26.1953 68.9932 25.8825C68.4565 25.5697 68.0263 25.1027 67.7585 24.5422C67.4907 23.9816 67.3977 23.3535 67.4917 22.7394C67.5856 22.1253 67.8621 21.5537 68.2852 21.0989C68.7083 20.644 69.2585 20.327 69.8642 20.189C70.4699 20.051 71.1031 20.0983 71.6815 20.3249C72.2599 20.5516 72.7568 20.9469 73.1075 21.4597C73.4582 21.9724 73.6466 22.5788 73.6481 23.2C73.6674 23.5937 73.6077 23.9872 73.4725 24.3573C73.3374 24.7275 73.1295 25.0669 72.861 25.3555C72.5926 25.644 72.2691 25.8759 71.9097 26.0374C71.5502 26.199 71.1621 26.2869 70.7681 26.296ZM59.5961 18.1C58.5879 18.1024 57.603 18.4035 56.7659 18.9654C55.9288 19.5272 55.277 20.3245 54.8929 21.2567C54.5087 22.1888 54.4094 23.2138 54.6075 24.2023C54.8057 25.1909 55.2923 26.0985 56.0061 26.8105C56.7198 27.5226 57.6285 28.0071 58.6175 28.2029C59.6065 28.3987 60.6313 28.297 61.5625 27.9107C62.4937 27.5243 63.2895 26.8706 63.8494 26.0322C64.4093 25.1938 64.7081 24.2082 64.7081 23.2C64.7178 22.5256 64.5918 21.856 64.3375 21.2313C64.0831 20.6065 63.7057 20.0393 63.2276 19.5635C62.7495 19.0876 62.1805 18.7128 61.5546 18.4614C60.9286 18.21 60.2585 18.0871 59.5841 18.1H59.5961ZM59.5961 26.296C58.9761 26.3418 58.3566 26.1999 57.8184 25.8887C57.2802 25.5775 56.8482 25.1115 56.5785 24.5514C56.3088 23.9912 56.2141 23.3628 56.3065 22.748C56.399 22.1333 56.6744 21.5606 57.0968 21.1045C57.5193 20.6484 58.0693 20.3301 58.6753 20.191C59.2812 20.0518 59.915 20.0984 60.4941 20.3245C61.0732 20.5506 61.5708 20.9458 61.9222 21.4587C62.2736 21.9716 62.4624 22.5784 62.4641 23.2C62.4834 23.5937 62.4237 23.9872 62.2885 24.3573C62.1534 24.7275 61.9455 25.0669 61.677 25.3555C61.4086 25.644 61.0851 25.8759 60.7257 26.0374C60.3662 26.199 59.9781 26.2869 59.5841 26.296H59.5961ZM46.2881 19.672V21.832H51.4721C51.3908 22.8494 50.9679 23.8094 50.2721 24.556C49.7534 25.0843 49.1299 25.4982 48.4417 25.771C47.7535 26.0438 47.0158 26.1695 46.2761 26.14C44.7484 26.14 43.2833 25.5332 42.2031 24.453C41.1229 23.3728 40.5161 21.9077 40.5161 20.38C40.5161 18.8524 41.1229 17.3873 42.2031 16.3071C43.2833 15.2269 44.7484 14.62 46.2761 14.62C47.7374 14.5962 49.1486 15.1529 50.2001 16.168L51.7241 14.644C51.0142 13.9253 50.1674 13.3563 49.2336 12.9708C48.2999 12.5854 47.2982 12.3913 46.2881 12.4C45.2213 12.3585 44.1571 12.5328 43.1592 12.9124C42.1614 13.292 41.2504 13.8692 40.481 14.6093C39.7115 15.3493 39.0994 16.2372 38.6813 17.2195C38.2631 18.2018 38.0476 19.2584 38.0476 20.326C38.0476 21.3937 38.2631 22.4503 38.6813 23.4326C39.0994 24.4149 39.7115 25.3027 40.481 26.0428C41.2504 26.7829 42.1614 27.3601 43.1592 27.7397C44.1571 28.1193 45.2213 28.2936 46.2881 28.252C47.3152 28.2985 48.3404 28.1243 49.2946 27.7414C50.2488 27.3585 51.11 26.7756 51.8201 26.032C53.0773 24.6508 53.7485 22.835 53.6921 20.968C53.6959 20.5132 53.6558 20.0591 53.5721 19.612L46.2881 19.672ZM100.66 21.352C100.347 20.4313 99.7619 19.6274 98.9819 19.0467C98.2019 18.4659 97.2639 18.1358 96.2921 18.1C95.6357 18.0988 94.986 18.2321 94.3832 18.4919C93.7803 18.7516 93.2372 19.1323 92.7873 19.6103C92.3374 20.0883 91.9904 20.6535 91.7676 21.2709C91.5448 21.8883 91.451 22.5449 91.4921 23.2C91.4775 23.8707 91.5982 24.5375 91.8471 25.1605C92.096 25.7835 92.4678 26.3499 92.9405 26.8259C93.4132 27.302 93.977 27.6779 94.5982 27.9311C95.2194 28.1844 95.8853 28.3099 96.5561 28.3C97.3955 28.3046 98.2229 28.1009 98.9642 27.7071C99.7056 27.3134 100.338 26.742 100.804 26.044L99.0641 24.844C98.8044 25.277 98.4367 25.6351 97.9971 25.8833C97.5575 26.1315 97.0609 26.2613 96.5561 26.26C96.0363 26.2799 95.5225 26.1428 95.0817 25.8667C94.6408 25.5907 94.2932 25.1883 94.0841 24.712L100.912 21.892L100.66 21.352ZM93.7001 23.056C93.6757 22.6849 93.7257 22.3126 93.8471 21.961C93.9684 21.6094 94.1587 21.2855 94.4068 21.0084C94.6549 20.7312 94.9558 20.5064 95.2919 20.3469C95.628 20.1875 95.9925 20.0968 96.3641 20.08C96.7511 20.0545 97.1372 20.1433 97.4743 20.3353C97.8113 20.5273 98.0846 20.8141 98.2601 21.16L93.7001 23.056ZM88.1561 28H90.4001V13H88.1561V28ZM84.4841 19.24H84.4001C84.0619 18.8619 83.6476 18.5595 83.1843 18.3527C82.7211 18.1459 82.2194 18.0394 81.7121 18.04C80.4007 18.1036 79.164 18.6694 78.2584 19.6199C77.3528 20.5705 76.8477 21.8331 76.8477 23.146C76.8477 24.459 77.3528 25.7216 78.2584 26.6721C79.164 27.6227 80.4007 28.1885 81.7121 28.252C82.2206 28.2606 82.7248 28.1576 83.1892 27.9503C83.6536 27.7429 84.0669 27.4363 84.4001 27.052H84.4721V27.784C84.4721 29.74 83.4281 30.784 81.7481 30.784C81.1885 30.7709 80.6455 30.5916 80.1882 30.269C79.7309 29.9463 79.38 29.4948 79.1801 28.972L77.2241 29.788C77.5923 30.6837 78.2196 31.4489 79.0257 31.9855C79.8317 32.5222 80.7797 32.8058 81.7481 32.8C84.3761 32.8 86.5481 31.252 86.5481 27.484V18.4H84.4841V19.24ZM81.9161 26.296C81.142 26.2278 80.4216 25.8721 79.8968 25.2991C79.372 24.726 79.0809 23.9771 79.0809 23.2C79.0809 22.423 79.372 21.6741 79.8968 21.101C80.4216 20.528 81.142 20.1723 81.9161 20.104C82.2999 20.1237 82.6758 20.22 83.0218 20.3873C83.3678 20.5545 83.6768 20.7893 83.9307 21.0778C84.1845 21.3664 84.3781 21.7028 84.4999 22.0672C84.6217 22.4317 84.6694 22.8169 84.6401 23.2C84.6728 23.5849 84.6272 23.9723 84.5059 24.339C84.3846 24.7057 84.1902 25.044 83.9344 25.3334C83.6787 25.6228 83.3669 25.8573 83.0179 26.0228C82.6689 26.1882 82.29 26.2812 81.9041 26.296H81.9161ZM111.172 13H105.808V28H108.052V22.312H111.184C111.824 22.358 112.466 22.2717 113.07 22.0585C113.675 21.8453 114.23 21.5099 114.699 21.073C115.168 20.6362 115.543 20.1073 115.799 19.5194C116.054 18.9316 116.187 18.2972 116.187 17.656C116.187 17.0149 116.054 16.3805 115.799 15.7926C115.543 15.2048 115.168 14.6759 114.699 14.2391C114.23 13.8022 113.675 13.4667 113.07 13.2536C112.466 13.0404 111.824 12.9541 111.184 13H111.172ZM111.172 20.2H108.04V15.088H111.22C111.903 15.088 112.557 15.3592 113.04 15.842C113.523 16.3247 113.794 16.9794 113.794 17.662C113.794 18.3447 113.523 18.9994 113.04 19.4821C112.557 19.9649 111.903 20.236 111.22 20.236L111.172 20.2ZM125.008 18.04C124.191 17.9912 123.378 18.1821 122.668 18.5893C121.958 18.9965 121.382 19.6022 121.012 20.332L123.004 21.16C123.2 20.7981 123.498 20.501 123.86 20.305C124.222 20.109 124.634 20.0225 125.044 20.056C125.329 20.0228 125.618 20.0466 125.893 20.126C126.169 20.2055 126.426 20.3391 126.649 20.5189C126.873 20.6987 127.058 20.9213 127.194 21.1735C127.331 21.4258 127.416 21.7027 127.444 21.988V22.144C126.723 21.7624 125.92 21.5646 125.104 21.568C122.956 21.568 120.784 22.768 120.784 24.94C120.805 25.4032 120.919 25.8573 121.119 26.2757C121.319 26.6941 121.6 27.0681 121.947 27.3758C122.294 27.6835 122.699 27.9185 123.138 28.0669C123.577 28.2153 124.042 28.2742 124.504 28.24C125.069 28.2806 125.635 28.1683 126.142 27.915C126.648 27.6616 127.077 27.2765 127.384 26.8H127.456V28H129.616V22.228C129.616 19.6 127.624 18.076 125.068 18.076L125.008 18.04ZM124.732 26.26C124 26.26 122.98 25.888 122.98 24.988C122.98 23.788 124.252 23.392 125.38 23.392C126.093 23.3745 126.797 23.5485 127.42 23.896C127.345 24.5457 127.038 25.1464 126.555 25.5874C126.072 26.0284 125.446 26.2801 124.792 26.296L124.732 26.26ZM137.488 18.4L134.92 24.904H134.848L132.184 18.4H129.784L133.78 27.496L131.5 32.548H133.84L139.984 18.4H137.488ZM117.316 28H119.56V13H117.316V28Z" fill="white"/>
<g id="Vector_2">
<path d="M45.8291 4.36309C45.8495 4.80324 45.7803 5.24294 45.6255 5.6555C45.4708 6.06807 45.2339 6.44489 44.9291 6.76309C44.5888 7.1166 44.1778 7.39442 43.7229 7.57844C43.2681 7.76246 42.7795 7.84855 42.2891 7.83109C41.5451 7.82527 40.8193 7.6 40.2028 7.18351C39.5862 6.76702 39.1063 6.17784 38.8231 5.48979C38.54 4.80174 38.4662 4.04542 38.611 3.3156C38.7558 2.58578 39.1127 1.91493 39.6371 1.38709C39.9818 1.03523 40.395 0.757839 40.8511 0.572072C41.3073 0.386306 41.7967 0.296119 42.2891 0.307093C42.7964 0.305403 43.2987 0.407495 43.7651 0.607093C44.1993 0.782238 44.5859 1.05776 44.8931 1.41109L44.2571 2.04709C44.0176 1.7622 43.7151 1.53692 43.3736 1.38906C43.032 1.24119 42.6608 1.17479 42.2891 1.19509C41.9143 1.19325 41.5429 1.26713 41.1974 1.41228C40.8518 1.55743 40.5391 1.77088 40.278 2.03982C40.0169 2.30876 39.8128 2.62766 39.6779 2.97739C39.543 3.32712 39.4802 3.70048 39.4931 4.07509C39.4853 4.63445 39.6432 5.18361 39.9471 5.65329C40.251 6.12298 40.6872 6.49214 41.2006 6.7142C41.7141 6.93627 42.2818 7.0013 42.8322 6.90108C43.3825 6.80086 43.8909 6.53989 44.2931 6.15109C44.6624 5.75094 44.8753 5.23129 44.8931 4.68709H42.2891V3.82309H45.7811C45.8131 4.00131 45.8292 4.18202 45.8291 4.36309ZM51.3251 1.36309H48.0851V3.64309H51.0371V4.50709H48.0851V6.78709H51.3251V7.67509H47.1251V0.475093H51.3251V1.36309ZM55.2611 7.67509H54.3371V1.36309H52.3211V0.475093H57.3251V1.36309H55.2611V7.67509ZM60.8531 7.67509V0.475093H61.7771V7.67509H60.8531ZM65.8811 7.67509H64.9571V1.36309H62.9411V0.475093H67.8851V1.36309H65.8811V7.67509ZM77.2571 6.73909C76.5556 7.43671 75.6065 7.8283 74.6171 7.8283C73.6278 7.8283 72.6786 7.43671 71.9771 6.73909C71.2952 6.01732 70.9154 5.06202 70.9154 4.06909C70.9154 3.07617 71.2952 2.12087 71.9771 1.39909C72.3229 1.05079 72.7342 0.774343 73.1873 0.585697C73.6404 0.397052 74.1263 0.299932 74.6171 0.299932C75.1079 0.299932 75.5939 0.397052 76.047 0.585697C76.5 0.774343 76.9113 1.05079 77.2571 1.39909C77.9417 2.11949 78.3234 3.07531 78.3234 4.06909C78.3234 5.06288 77.9417 6.0187 77.2571 6.73909ZM72.6611 6.13909C73.1806 6.65644 73.8839 6.9469 74.6171 6.9469C75.3503 6.9469 76.0536 6.65644 76.5731 6.13909C77.0858 5.57391 77.3698 4.83816 77.3698 4.07509C77.3698 3.31203 77.0858 2.57627 76.5731 2.01109C76.0536 1.49375 75.3503 1.20328 74.6171 1.20328C73.8839 1.20328 73.1806 1.49375 72.6611 2.01109C72.1484 2.57627 71.8644 3.31203 71.8644 4.07509C71.8644 4.83816 72.1484 5.57391 72.6611 6.13909ZM79.6211 7.67509V0.475093H80.7491L84.2531 6.07909V0.475093H85.1771V7.67509H84.2171L80.5571 1.80709V7.67509H79.6211Z" fill="white"/>
<path fill-rule="evenodd" clip-rule="evenodd" d="M74.6171 0.419932C74.1422 0.419932 73.6719 0.513919 73.2334 0.696479C72.7954 0.878849 72.3977 1.14601 72.0633 1.48258C71.4031 2.18195 71.0354 3.10731 71.0354 4.06909C71.0354 5.03075 71.403 5.956 72.0631 6.65533C72.742 7.32976 73.6601 7.7083 74.6171 7.7083C75.5742 7.7083 76.4924 7.3297 77.1713 6.65519C77.8339 5.95724 78.2034 5.03154 78.2034 4.06909C78.2034 3.10653 77.8339 2.18071 77.1711 1.48274C76.8366 1.14609 76.4389 0.878877 76.0008 0.696479C75.5624 0.513919 75.0921 0.419932 74.6171 0.419932ZM73.1412 0.474916C73.6089 0.280185 74.1105 0.179932 74.6171 0.179932C75.1238 0.179932 75.6254 0.280185 76.0931 0.474916C76.5608 0.669647 76.9853 0.955006 77.3423 1.31455L77.3441 1.31641C78.0499 2.05911 78.4434 3.04454 78.4434 4.06909C78.4434 5.09365 78.0499 6.07906 77.3441 6.82175L77.3418 6.82422C76.6178 7.54419 75.6382 7.9483 74.6171 7.9483C73.5961 7.9483 72.6165 7.54416 71.8925 6.82418L71.8898 6.82154C71.1869 6.07749 70.7954 5.09267 70.7954 4.06909C70.7954 3.04552 71.187 2.06073 71.8899 1.31669L71.8919 1.31452C72.2489 0.95498 72.6734 0.669647 73.1412 0.474916ZM42.2864 0.427064C41.8104 0.416455 41.3373 0.503636 40.8964 0.68321C40.4554 0.862784 40.056 1.13093 39.7228 1.47106L39.7222 1.47167C39.2145 1.98275 38.8689 2.6323 38.7287 3.33895C38.5885 4.0456 38.6599 4.77791 38.9341 5.44412C39.2083 6.11033 39.673 6.68081 40.27 7.08407C40.8669 7.48734 41.5697 7.70546 42.2901 7.7111L42.2934 7.71112C42.7669 7.72798 43.2387 7.6449 43.6779 7.4672C44.1171 7.28953 44.514 7.0213 44.8425 6.67999C45.136 6.37355 45.3642 6.01067 45.5132 5.61337C45.6622 5.21603 45.7289 4.79255 45.7092 4.36865L45.8291 4.36309L45.7091 4.36305C45.7092 4.22248 45.6991 4.08213 45.679 3.94309H42.4091V4.56709H45.0171L45.0131 4.69101C44.9943 5.26401 44.7701 5.81114 44.3813 6.23247L44.3767 6.23751C43.9574 6.64279 43.4274 6.91468 42.8537 7.01914C42.28 7.1236 41.6882 7.05582 41.153 6.82434C40.6178 6.59287 40.1631 6.20806 39.8464 5.71848C39.5301 5.22971 39.3655 4.65838 39.3731 4.07632C39.36 3.68654 39.4256 3.29811 39.5659 2.93421C39.7066 2.56941 39.9195 2.23676 40.1919 1.95623C40.4642 1.6757 40.7904 1.45305 41.1509 1.30164C41.5103 1.15069 41.8964 1.07365 42.2861 1.07508C42.6752 1.05438 43.0637 1.12415 43.4212 1.27893C43.7399 1.41688 44.0261 1.61898 44.2624 1.87213L44.7276 1.40693C44.4459 1.10756 44.1023 0.87248 43.7202 0.718382L43.7179 0.71744C43.2665 0.52428 42.7805 0.425457 42.2895 0.427093L42.2864 0.427064ZM45.9491 4.36034C45.9698 4.81579 45.898 5.27072 45.7379 5.69764C45.5775 6.12543 45.3318 6.51615 45.0158 6.8461C44.6638 7.21176 44.2385 7.49934 43.7679 7.68969C43.2979 7.87982 42.7932 7.96888 42.2865 7.95107C41.5195 7.94474 40.7713 7.71235 40.1356 7.28295C39.4995 6.85324 39.0043 6.24535 38.7122 5.53546C38.42 4.82556 38.3439 4.04523 38.4933 3.29225C38.6426 2.5394 39.0108 1.84736 39.5517 1.30282C39.9078 0.939372 40.3346 0.652839 40.8059 0.460935C41.2768 0.269169 41.7819 0.175971 42.2903 0.187089C42.813 0.185557 43.3305 0.290768 43.8112 0.496279C44.2625 0.678537 44.6643 0.965037 44.9837 1.33236L45.0571 1.41681L44.2495 2.22446L44.1653 2.12431C43.9377 1.85367 43.6504 1.63965 43.3259 1.49918C43.0014 1.3587 42.6487 1.29562 42.2957 1.31491L42.2885 1.3153C41.9299 1.31354 41.5745 1.38402 41.2438 1.52292C40.9131 1.66181 40.6139 1.86606 40.3641 2.12341C40.1142 2.38076 39.9189 2.68591 39.7899 3.02056C39.6608 3.35522 39.6007 3.71249 39.613 4.07095L39.6132 4.07678C39.6057 4.61244 39.7569 5.13833 40.0479 5.58811C40.3389 6.03789 40.7566 6.39141 41.2483 6.60406C41.74 6.81672 42.2836 6.87899 42.8107 6.78302C43.3366 6.68726 43.8225 6.43821 44.2072 6.0672C44.5274 5.71909 44.723 5.27592 44.7655 4.80709H42.1691V3.70309H45.8815L45.8992 3.80188C45.9323 3.9862 45.949 4.17308 45.9491 4.36034ZM47.0051 0.355093H51.4451V1.48309H48.2051V3.52309H51.1571V4.62709H48.2051V6.66709H51.4451V7.79509H47.0051V0.355093ZM47.2451 0.595093V7.55509H51.2051V6.90709H47.9651V4.38709H50.9171V3.76309H47.9651V1.24309H51.2051V0.595093H47.2451ZM52.2011 0.355093H57.4451V1.48309H55.3811V7.79509H54.2171V1.48309H52.2011V0.355093ZM52.4411 0.595093V1.24309H54.4571V7.55509H55.1411V1.24309H57.2051V0.595093H52.4411ZM60.7331 0.355093H61.8971V7.79509H60.7331V0.355093ZM60.9731 0.595093V7.55509H61.6571V0.595093H60.9731ZM62.8211 0.355093H68.0051V1.48309H66.0011V7.79509H64.8371V1.48309H62.8211V0.355093ZM63.0611 0.595093V1.24309H65.0771V7.55509H65.7611V1.24309H67.7651V0.595093H63.0611ZM79.5011 0.355093H80.8156L84.1331 5.66083V0.355093H85.2971V7.79509H84.1505L80.6771 2.22624V7.79509H79.5011V0.355093ZM79.7411 0.595093V7.55509H80.4371V1.38795L84.2837 7.55509H85.0571V0.595093H84.3731V6.49736L80.6826 0.595093H79.7411ZM72.5764 1.92606C73.1184 1.38632 73.8522 1.08328 74.6171 1.08328C75.382 1.08328 76.1158 1.38632 76.6578 1.92606L76.6621 1.93036C77.1948 2.51762 77.4898 3.28222 77.4898 4.07509C77.4898 4.86797 77.1947 5.63246 76.662 6.21972L76.6579 6.22423C76.1159 6.76398 75.382 7.0669 74.6171 7.0669C73.8522 7.0669 73.1184 6.76386 72.5764 6.22412L72.6611 6.13909L72.5722 6.21972C72.0395 5.63246 71.7444 4.86797 71.7444 4.07509C71.7444 3.28222 72.0395 2.51772 72.5722 1.93047L72.5764 1.92606ZM72.748 6.05622C73.2448 6.54982 73.9167 6.8269 74.6171 6.8269C75.3175 6.8269 75.9895 6.54982 76.4863 6.05622C76.9776 5.51342 77.2498 4.80734 77.2498 4.07509C77.2498 3.34284 76.9776 2.63677 76.4863 2.09396C75.9895 1.60036 75.3175 1.32328 74.6171 1.32328C73.9167 1.32328 73.2448 1.60036 72.748 2.09397C72.2566 2.63677 71.9844 3.34284 71.9844 4.07509C71.9844 4.80734 72.2566 5.51342 72.748 6.05622Z" fill="white"/>
</g>
<g id="Group 2">
<path id="Vector_3" d="M1.52798 1.04811C1.13686 1.51744 0.939443 2.11827 0.975978 2.72811V29.2721C0.939443 29.882 1.13686 30.4828 1.52798 30.9521L1.61198 31.0361L16.48 16.1801V15.8321L1.61198 0.964111L1.52798 1.04811Z" fill="url(#paint0_linear_933_15)"/>
<path id="Vector_4" d="M21.3999 21.1361L16.4799 16.1801V15.8321L21.3999 10.8641L21.5079 10.9241L27.3999 14.2721C29.0799 15.2201 29.0799 16.7801 27.3999 17.7401L21.5319 21.0761L21.3999 21.1361Z" fill="url(#paint1_linear_933_15)"/>
<path id="Vector_5" d="M21.5438 21.0641L16.4798 16.0001L1.52783 30.9521C1.87027 31.2531 2.3071 31.4251 2.76285 31.4382C3.21859 31.4514 3.66461 31.3049 4.02383 31.0241L21.5558 21.0641" fill="url(#paint2_linear_933_15)"/>
<path id="Vector_6" d="M21.5439 10.9361L4.01187 0.976082C3.65265 0.695299 3.20663 0.548825 2.75089 0.561971C2.29514 0.575118 1.8583 0.747061 1.51587 1.04808L16.4799 16.0001L21.5439 10.9361Z" fill="url(#paint3_linear_933_15)"/>
<path id="Vector_7" opacity="0.2" d="M21.3998 20.9561L4.01183 30.8561C3.66538 31.1151 3.24441 31.2551 2.81183 31.2551C2.37925 31.2551 1.95828 31.1151 1.61183 30.8561L1.52783 30.9401L1.61183 31.0241C1.9575 31.2849 2.37877 31.4261 2.81183 31.4261C3.2449 31.4261 3.66617 31.2849 4.01183 31.0241L21.5438 21.0641L21.3998 20.9561Z" fill="black"/>
<path id="Vector_8" opacity="0.12" d="M1.52798 30.7841C1.13686 30.3148 0.939443 29.714 0.975978 29.1041V29.2841C0.939443 29.894 1.13686 30.4948 1.52798 30.9641L1.61198 30.8801L1.52798 30.7841ZM27.4 17.5601L21.4 20.9561L21.508 21.0641L27.4 17.7281C27.7343 17.5711 28.0213 17.3286 28.232 17.0252C28.4427 16.7218 28.5696 16.3682 28.6 16.0001C28.5325 16.3346 28.3892 16.6491 28.1812 16.9195C27.9732 17.19 27.7059 17.4091 27.4 17.5601Z" fill="black"/>
<path id="Vector_9" opacity="0.25" d="M4.01187 1.14368L27.3999 14.4397C27.7058 14.5907 27.9731 14.8098 28.1811 15.0803C28.3891 15.3507 28.5324 15.6652 28.5999 15.9997C28.5695 15.6316 28.4425 15.278 28.2319 14.9746C28.0212 14.6712 27.7342 14.4287 27.3999 14.2717L4.01187 0.97568C2.33187 0.0276803 0.963867 0.819682 0.963867 2.73968V2.91968C0.999867 0.987681 2.34387 0.195682 4.01187 1.14368Z" fill="white"/>
</g>
</g>
<defs>
<linearGradient id="paint0_linear_933_15" x1="15.16" y1="2.45211" x2="-4.97602" y2="22.5881" gradientUnits="userSpaceOnUse">
<stop stop-color="#00A0FF"/>
<stop offset="0.01" stop-color="#00A1FF"/>
<stop offset="0.26" stop-color="#00BEFF"/>
<stop offset="0.51" stop-color="#00D2FF"/>
<stop offset="0.76" stop-color="#00DFFF"/>
<stop offset="1" stop-color="#00E3FF"/>
</linearGradient>
<linearGradient id="paint1_linear_933_15" x1="29.5959" y1="16.0001" x2="0.567866" y2="16.0001" gradientUnits="userSpaceOnUse">
<stop stop-color="#FFE000"/>
<stop offset="0.41" stop-color="#FFBD00"/>
<stop offset="0.78" stop-color="#FFA500"/>
<stop offset="1" stop-color="#FF9C00"/>
</linearGradient>
<linearGradient id="paint2_linear_933_15" x1="18.7958" y1="18.7601" x2="-8.51617" y2="46.0601" gradientUnits="userSpaceOnUse">
<stop stop-color="#FF3A44"/>
<stop offset="1" stop-color="#C31162"/>
</linearGradient>
<linearGradient id="paint3_linear_933_15" x1="-2.24013" y1="-7.78392" x2="9.95187" y2="4.40808" gradientUnits="userSpaceOnUse">
<stop stop-color="#32A071"/>
<stop offset="0.07" stop-color="#2DA771"/>
<stop offset="0.48" stop-color="#15CF74"/>
<stop offset="0.8" stop-color="#06E775"/>
<stop offset="1" stop-color="#00F076"/>
</linearGradient>
</defs>
</svg>
